<svg xmlns="http://www.w3.org/2000/svg" width="32" height="32" viewBox="0 0 32 32" fill="none">
    <path d="M16.0006 30.3245C13.1674 30.325 10.3976 29.4853 8.04159 27.9116C5.68559 26.3379 3.84918 24.1009 2.76459 21.4834C1.68001 18.866 1.39597 15.9857 1.9484 13.2069C2.50083 10.428 3.86491 7.87535 5.86814 5.87177C7.87137 3.86819 10.4238 2.50365 13.2025 1.95073C15.9813 1.39781 18.8616 1.68133 21.4792 2.76545C24.0969 3.84957 26.3342 5.68559 27.9083 8.04131C29.4824 10.397 30.3226 13.1666 30.3226 15.9999C30.3186 19.7973 28.8085 23.4381 26.1235 26.1235C23.4385 28.809 19.798 30.3197 16.0006 30.3245Z" fill="#6D4CD8"/>
    <path d="M28.8469 19.1531C30.5883 12.0579 26.2483 4.8945 19.1531 3.15308C12.058 1.41166 4.89454 5.75171 3.15312 12.8468C1.4117 19.942 5.75174 27.1054 12.8469 28.8468C19.942 30.5883 27.1055 26.2482 28.8469 19.1531Z" fill="#6D4CD8"/>
    <path d="M16.0006 14.7458C17.8242 14.7458 19.3025 13.2674 19.3025 11.4438C19.3025 9.62018 17.8242 8.14185 16.0006 8.14185C14.1769 8.14185 12.6986 9.62018 12.6986 11.4438C12.6986 13.2674 14.1769 14.7458 16.0006 14.7458Z" fill="#DBD4F0"/>
    <path d="M16.0005 16.1245C15.1957 16.1242 14.3986 16.2825 13.655 16.5903C12.9113 16.8982 12.2356 17.3496 11.6665 17.9187C11.0974 18.4878 10.646 19.1635 10.3381 19.9072C10.0303 20.6508 9.87198 21.4479 9.87231 22.2527C9.87231 22.6791 10.0417 23.088 10.3432 23.3896C10.6447 23.6911 11.0536 23.8604 11.48 23.8604H20.521C20.9474 23.8604 21.3563 23.6911 21.6578 23.3896C21.9593 23.088 22.1287 22.6791 22.1287 22.2527C22.1287 20.6274 21.4831 19.0687 20.3338 17.9194C19.1846 16.7702 17.6258 16.1245 16.0005 16.1245Z" fill="#DBD4F0"/>
    </svg>