<svg xmlns="http://www.w3.org/2000/svg" width="32" height="32" viewBox="0 0 32 32" fill="none">
    <path d="M17.0486 31.9656C13.8019 32.1788 10.5674 31.3972 7.77638 29.7249C4.98538 28.0526 2.77055 25.5691 1.42726 22.6057C0.083969 19.6422 -0.323926 16.3397 0.25797 13.1385C0.839866 9.9373 2.38389 6.98958 4.68414 4.68845C6.98439 2.38733 9.93152 0.842177 13.1325 0.259061C16.3335 -0.324054 19.6362 0.082583 22.6001 1.42474C25.564 2.7669 28.0483 4.98079 29.7217 7.77116C31.3951 10.5615 32.178 13.7958 31.966 17.0425C31.7101 20.9153 30.0564 24.5633 27.3125 27.3082C24.5686 30.0532 20.9212 31.7082 17.0486 31.9656Z" fill="#CE980C"/>
    <path d="M30.7669 15.5167C30.8639 18.4786 30.068 21.4012 28.4825 23.905C26.8971 26.4087 24.5954 28.3778 21.8764 29.5566C19.1574 30.7353 16.1468 31.0692 13.2356 30.5149C10.3245 29.9605 7.64723 28.5436 5.55172 26.4481C3.45622 24.3525 2.03927 21.6753 1.48493 18.7641C0.930586 15.8529 1.26447 12.8423 2.44322 10.1234C3.62196 7.40437 5.59109 5.10267 8.09483 3.51723C10.5986 1.9318 13.5212 1.13589 16.4831 1.2329C20.2324 1.35569 23.7946 2.9 26.4472 5.55257C29.0998 8.20515 30.6441 11.7674 30.7669 15.5167Z" fill="#CE980C"/>
    <path d="M16.0001 8.38477C14.9346 8.38477 13.4229 10.9193 13.2013 14.974H18.796C18.5744 10.9193 17.0656 8.38477 16.0001 8.38477Z" fill="#FFEBB7"/>
    <path d="M13.2013 17.017C13.4229 21.0717 14.9346 23.609 16.0001 23.609C17.0656 23.609 18.5744 21.0802 18.796 17.017H13.2013Z" fill="#FFEBB7"/>
    <path d="M20.8504 14.9743H24.5783C24.3799 13.327 23.7119 11.7715 22.6539 10.4933C21.5959 9.21515 20.1926 8.26828 18.6113 7.76562C19.8559 9.27726 20.7083 11.8629 20.8504 14.9743Z" fill="#FFEBB7"/>
    <path d="M11.147 14.9743C11.2976 11.8487 12.1358 9.27726 13.3746 7.76562C11.7955 8.26962 10.3946 9.21721 9.33915 10.4954C8.28368 11.7735 7.61812 13.3283 7.42188 14.9743H11.147Z" fill="#FFEBB7"/>
    <path d="M20.8503 17.017C20.7082 20.1425 19.8558 22.7254 18.6255 24.2342C20.2053 23.7286 21.6064 22.7795 22.6619 21.4998C23.7173 20.2202 24.3825 18.6641 24.5782 17.017H20.8503Z" fill="#FFEBB7"/>
    <path d="M11.147 17.017H7.42188C7.61658 18.6645 8.28143 20.2211 9.33701 21.5009C10.3926 22.7807 11.7943 23.7295 13.3746 24.2342C12.1358 22.7254 11.2976 20.1425 11.147 17.017Z" fill="#FFEBB7"/>
    </svg>