<svg xmlns="http://www.w3.org/2000/svg" width="32" height="32" viewBox="0 0 32 32" fill="none">
    <path d="M15.9985 31.1179C13.0102 31.1179 10.089 30.2318 7.60433 28.5716C5.11966 26.9114 3.18309 24.5517 2.03952 21.7908C0.895951 19.03 0.596741 15.9921 1.17973 13.0612C1.76271 10.1304 3.20171 7.43817 5.31475 5.32513C7.4278 3.21209 10.12 1.77309 13.0508 1.1901C15.9817 0.607117 19.0196 0.906327 21.7805 2.0499C24.5413 3.19347 26.901 5.13003 28.5612 7.61471C30.2214 10.0994 31.1075 13.0206 31.1075 16.0089C31.1009 20.014 29.5069 23.8532 26.6749 26.6852C23.8428 29.5173 20.0036 31.1113 15.9985 31.1179Z" fill="#73CE9C"/>
    <path d="M29.7868 18.2131C31.0091 10.5989 25.8274 3.43547 18.2132 2.21315C10.599 0.990819 3.43555 6.17248 2.21322 13.7867C0.990893 21.4009 6.17255 28.5644 13.7868 29.7867C21.401 31.009 28.5645 25.8274 29.7868 18.2131Z" fill="#73CE9C"/>
    <path d="M11.2141 11.5055H8.06634C7.37096 11.5055 6.80725 12.0692 6.80725 12.7646V22.3924C6.80725 23.0878 7.37096 23.6515 8.06634 23.6515H11.2141C11.9094 23.6515 12.4732 23.0878 12.4732 22.3924V12.7646C12.4732 12.0692 11.9094 11.5055 11.2141 11.5055Z" fill="#E6FEF1"/>
    <path d="M23.9854 12.6682H20.3718L21.5512 10.5697C21.7919 10.1436 21.8716 9.64515 21.776 9.16514C21.6803 8.68513 21.4155 8.25539 21.0298 7.95405C20.6441 7.65271 20.1631 7.49978 19.6742 7.52307C19.1853 7.54636 18.721 7.74431 18.3657 8.08095L14.408 11.7827V22.7745H21.4756C21.8796 22.7748 22.2747 22.6553 22.6108 22.4312C22.947 22.2071 23.2092 21.8885 23.3643 21.5154L25.8825 15.5012C26.0128 15.1896 26.064 14.8506 26.0313 14.5145C25.9987 14.1783 25.8832 13.8555 25.6953 13.5749C25.5074 13.2942 25.2529 13.0646 24.9545 12.9063C24.6561 12.7481 24.3232 12.6663 23.9854 12.6682Z" fill="#E6FEF1"/>
    </svg>