<svg xmlns="http://www.w3.org/2000/svg" width="348" height="80" viewBox="0 0 132 30" fill="none">
    <g clip-path="url(#clip0_635_1098)">
      <mask id="mask0_635_1098" style="mask-type:luminance" maskUnits="userSpaceOnUse" x="0" y="0" width="132" height="30">
        <path d="M131.441 0H0.558594V30H131.441V0Z" fill="white"/>
      </mask>
      <g mask="url(#mask0_635_1098)">
        <path d="M64.3467 7.98659C61.7035 7.98659 59.0983 9.12137 57.1094 11.3524V0.350342H53.1733V18.873C53.1733 18.8734 53.1733 18.8739 53.1733 18.8744C53.1733 24.8875 58.0479 29.762 64.0611 29.762C70.0742 29.762 74.9487 24.8875 74.9487 18.8744C74.9487 12.8613 70.3598 7.98659 64.3467 7.98659ZM64.0611 25.5685C60.3639 25.5685 57.3668 22.5714 57.3668 18.8743C57.3668 15.1772 60.3639 12.18 64.0611 12.18C67.7582 12.18 70.7553 15.1772 70.7553 18.8743C70.7553 22.5714 67.7582 25.5685 64.0611 25.5685Z" fill="white"/>
      </g>
      <mask id="mask1_635_1098" style="mask-type:luminance" maskUnits="userSpaceOnUse" x="0" y="0" width="132" height="30">
        <path d="M131.441 0H0.558594V30H131.441V0Z" fill="white"/>
      </mask>
      <g mask="url(#mask1_635_1098)">
        <path d="M88.7329 7.98659C86.0897 7.98659 83.4845 9.12137 81.4955 11.3524V0.350342H77.5596V18.873C77.5596 18.8734 77.5596 18.8739 77.5596 18.8744C77.5596 24.8875 82.4341 29.762 88.4473 29.762C94.4603 29.762 99.3349 24.8875 99.3349 18.8744C99.3349 12.8613 94.746 7.98659 88.7329 7.98659ZM88.4473 25.5685C84.7502 25.5685 81.753 22.5714 81.753 18.8743C81.753 15.1772 84.7502 12.18 88.4473 12.18C92.1444 12.18 95.1415 15.1772 95.1415 18.8743C95.1415 22.5714 92.1444 25.5685 88.4473 25.5685Z" fill="white"/>
      </g>
      <mask id="mask2_635_1098" style="mask-type:luminance" maskUnits="userSpaceOnUse" x="0" y="0" width="132" height="30">
        <path d="M131.441 0H0.558594V30H131.441V0Z" fill="white"/>
      </mask>
      <g mask="url(#mask2_635_1098)">
        <path d="M31.0264 20.7814V8.57715H35.248V20.7431C35.248 23.8518 37.0518 25.8474 40.0837 25.8474C43.1539 25.8474 44.9195 23.9285 44.9195 20.7431V8.57715H49.1794V20.7814C49.1794 26.423 45.7637 29.762 40.0837 29.762C34.5571 29.762 31.0264 26.308 31.0264 20.7814Z" fill="white"/>
      </g>
      <mask id="mask3_635_1098" style="mask-type:luminance" maskUnits="userSpaceOnUse" x="0" y="0" width="132" height="30">
        <path d="M131.441 0H0.558594V30H131.441V0Z" fill="white"/>
      </mask>
      <g mask="url(#mask3_635_1098)">
        <path d="M106.953 0.350342H102.731V29.2631H106.953V0.350342Z" fill="white"/>
      </g>
      <mask id="mask4_635_1098" style="mask-type:luminance" maskUnits="userSpaceOnUse" x="0" y="0" width="132" height="30">
        <path d="M131.441 0H0.558594V30H131.441V0Z" fill="white"/>
      </mask>
      <g mask="url(#mask4_635_1098)">
        <path d="M130.85 20.5512H114.693C115.307 23.775 117.571 25.9625 121.562 25.9625C123.903 25.9625 126.743 25.0798 128.586 23.7367L130.351 26.8452C128.24 28.4188 124.901 29.7236 121.409 29.7236C113.656 29.7236 110.317 24.3122 110.317 18.8625C110.317 15.7539 111.277 13.1825 113.234 11.1483C115.192 9.1143 117.763 8.07812 120.872 8.07812C123.827 8.07812 126.283 8.99923 128.163 10.8797C130.044 12.7603 131.003 15.2932 131.003 18.5169C131.003 19.0928 130.965 19.7836 130.85 20.5512ZM114.693 17.097H126.743C126.398 13.8349 123.98 11.7242 120.872 11.7242C117.686 11.7242 115.307 13.8733 114.693 17.097Z" fill="white"/>
      </g>
      <mask id="mask5_635_1098" style="mask-type:luminance" maskUnits="userSpaceOnUse" x="0" y="0" width="132" height="30">
        <path d="M131.441 0H0.558594V30H131.441V0Z" fill="white"/>
      </mask>
      <g mask="url(#mask5_635_1098)">
        <path d="M17.6226 7.98659C14.9794 7.98659 12.3741 9.12137 10.3852 11.3524V0.350342H6.44922V18.873C6.44922 18.8734 6.44922 18.8739 6.44922 18.8744C6.44922 24.8875 11.3238 29.762 17.3369 29.762C23.35 29.762 28.2247 24.8875 28.2247 18.8744C28.2247 12.8613 23.6357 7.98659 17.6226 7.98659ZM17.3369 25.5685C13.6398 25.5685 10.6427 22.5714 10.6427 18.8743C10.6427 15.1772 13.6398 12.18 17.3369 12.18C21.034 12.18 24.0311 15.1772 24.0311 18.8743C24.0311 22.5714 21.034 25.5685 17.3369 25.5685Z" fill="white"/>
      </g>
      <mask id="mask6_635_1098" style="mask-type:luminance" maskUnits="userSpaceOnUse" x="0" y="0" width="132" height="30">
        <path d="M131.441 0H0.558594V30H131.441V0Z" fill="white"/>
      </mask>
      <g mask="url(#mask6_635_1098)">
        <path d="M3.58786 24.3772C2.10088 24.3772 0.895508 25.5826 0.895508 27.0696C0.895508 28.5565 2.10088 29.7619 3.58786 29.7619C5.07485 29.7619 6.28021 28.5565 6.28021 27.0696C6.28021 25.5826 5.07485 24.3772 3.58786 24.3772Z" fill="#B9FFFF"/>
      </g>
    </g>
    <defs>
      <clipPath id="clip0_635_1098">
        <rect width="130.882" height="30" fill="white" transform="translate(0.558594)"/>
      </clipPath>
    </defs>
  </svg>