<svg xmlns="http://www.w3.org/2000/svg" width="150" height="63" viewBox="0 0 150 63" fill="none">
  <g style="mix-blend-mode:lighten">
    <path d="M39.5117 11.3668C42.1486 12.8893 43.773 15.7028 43.773 18.7477V31.893C43.773 34.9378 42.1486 37.7514 39.5117 39.2738L28.1276 45.8464C25.4906 47.3689 22.2418 47.3689 19.6048 45.8464L8.22071 39.2738C5.58378 37.7514 3.95935 34.9378 3.95935 31.8929V18.7477C3.95935 15.7028 5.58378 12.8893 8.22071 11.3668L19.6048 4.79417C22.2418 3.27174 25.4906 3.27174 28.1276 4.79417L39.5117 11.3668Z" stroke="#6D4CD8" stroke-width="5"/>
    <path d="M5.04211 14.3223L23.613 21.3301C23.7681 21.3886 23.9393 21.3886 24.0944 21.3301L42.6653 14.3223" stroke="#6D4CD8" stroke-width="5"/>
    <path d="M20.3848 21.1662L22.0277 19.2171C22.1572 19.0633 22.348 18.9746 22.549 18.9746H25.1914C25.3757 18.9746 25.5521 19.0492 25.6805 19.1813L27.5616 21.1177C27.9675 21.5357 28.0631 22.1654 27.7995 22.685L25.9284 26.3721C25.6353 26.9496 25.5128 27.5987 25.5752 28.2432L28.1179 54.5121C28.1916 55.2729 28.0074 56.0364 27.5949 56.68L24.4536 61.5816C24.1792 62.0097 23.5497 61.9975 23.2918 61.5597L20.3865 56.621C20.0288 56.013 19.8686 55.309 19.9278 54.6062L22.159 28.1216C22.2069 27.5538 22.1117 26.9831 21.882 26.4617L20.1794 22.5946C19.9697 22.1183 20.0494 21.5642 20.3848 21.1662Z" fill="#FA7086"/>
    <path d="M58.7324 30.5831C58.9233 30.7195 59.2438 30.8695 59.6938 31.0331C60.1438 31.1967 60.662 31.2786 61.2483 31.2786C61.8211 31.2786 62.2779 31.1831 62.6188 30.9922C62.9597 30.7876 63.2188 30.4808 63.3961 30.0717C63.5733 29.6626 63.6892 29.1581 63.7438 28.5581C63.7983 27.9445 63.8256 27.2286 63.8256 26.4104V19.0263H66.6483V26.4104C66.6483 27.5149 66.587 28.524 66.4642 29.4376C66.3551 30.3376 66.1097 31.1081 65.7279 31.749C65.3597 32.3899 64.8211 32.8876 64.112 33.2422C63.4029 33.5967 62.4483 33.774 61.2483 33.774C60.0211 33.774 58.9711 33.474 58.0983 32.874L58.7324 30.5831ZM72.0354 33.7536C71.5172 33.7536 71.0331 33.6717 70.5831 33.5081C70.1331 33.3308 69.7445 33.0922 69.4172 32.7922C69.0899 32.4786 68.8308 32.1172 68.6399 31.7081C68.4626 31.299 68.374 30.849 68.374 30.3581C68.374 29.8536 68.4831 29.3899 68.7013 28.9672C68.9331 28.5308 69.2467 28.1626 69.6422 27.8626C70.0513 27.5626 70.5354 27.3308 71.0945 27.1672C71.6536 26.9899 72.2672 26.9013 72.9354 26.9013C73.4126 26.9013 73.8763 26.9422 74.3263 27.024C74.7899 27.1058 75.199 27.2217 75.5536 27.3717V26.7581C75.5536 26.049 75.349 25.5036 74.9399 25.1217C74.5445 24.7399 73.9513 24.549 73.1604 24.549C72.5876 24.549 72.0285 24.6513 71.4831 24.8558C70.9376 25.0604 70.3786 25.3604 69.8058 25.7558L68.9672 24.0172C70.3445 23.1035 71.8308 22.6467 73.4263 22.6467C74.9672 22.6467 76.1604 23.0286 77.0058 23.7922C77.8649 24.5422 78.2945 25.6331 78.2945 27.0649V30.399C78.2945 30.6854 78.3422 30.8899 78.4376 31.0126C78.5467 31.1354 78.7172 31.2036 78.949 31.2172V33.549C78.4854 33.6445 78.0831 33.6922 77.7422 33.6922C77.224 33.6922 76.8217 33.5763 76.5354 33.3445C76.2626 33.1126 76.0922 32.8058 76.024 32.424L75.9626 31.8308C75.4854 32.4581 74.9058 32.9354 74.224 33.2626C73.5422 33.5899 72.8126 33.7536 72.0354 33.7536ZM72.8126 31.749C73.2763 31.749 73.7126 31.6672 74.1217 31.5036C74.5445 31.3399 74.8717 31.1217 75.1036 30.849C75.4036 30.6172 75.5536 30.3581 75.5536 30.0717V28.8445C75.2263 28.7217 74.8717 28.6263 74.4899 28.5581C74.1081 28.4763 73.7399 28.4354 73.3854 28.4354C72.6763 28.4354 72.0967 28.599 71.6467 28.9263C71.1967 29.2399 70.9717 29.6422 70.9717 30.1331C70.9717 30.5967 71.149 30.9854 71.5036 31.299C71.8581 31.599 72.2945 31.749 72.8126 31.749ZM80.8554 33.549V22.8308H83.5963V33.549H80.8554ZM80.8554 21.3376V18.6172H83.5963V21.3376H80.8554ZM92.451 25.2036C91.6192 25.2172 90.8761 25.3808 90.2215 25.6945C89.567 25.9945 89.0965 26.4513 88.8101 27.0649V33.549H86.0692V22.8308H88.5851V25.1217C88.7761 24.7536 89.0011 24.4263 89.2601 24.1399C89.5192 23.8399 89.7988 23.5808 90.0988 23.3626C90.3988 23.1445 90.6988 22.9808 90.9988 22.8717C91.3124 22.749 91.6124 22.6876 91.8988 22.6876C92.0488 22.6876 92.1579 22.6876 92.2261 22.6876C92.3079 22.6876 92.3829 22.6945 92.451 22.7081V25.2036ZM98.3897 33.7536C97.517 33.7536 96.7329 33.6036 96.0374 33.3036C95.342 33.0036 94.7488 32.6013 94.2579 32.0967C93.7806 31.5786 93.4124 30.9854 93.1533 30.3172C92.8942 29.649 92.7647 28.9467 92.7647 28.2104C92.7647 27.4604 92.8942 26.7513 93.1533 26.0831C93.4124 25.4149 93.7806 24.8285 94.2579 24.324C94.7488 23.8058 95.342 23.3967 96.0374 23.0967C96.7329 22.7967 97.517 22.6467 98.3897 22.6467C99.2624 22.6467 100.04 22.7967 100.722 23.0967C101.417 23.3967 102.003 23.8058 102.481 24.324C102.972 24.8285 103.347 25.4149 103.606 26.0831C103.865 26.7513 103.994 27.4604 103.994 28.2104C103.994 28.9467 103.865 29.649 103.606 30.3172C103.347 30.9854 102.978 31.5786 102.501 32.0967C102.024 32.6013 101.437 33.0036 100.742 33.3036C100.047 33.6036 99.2624 33.7536 98.3897 33.7536ZM95.5874 28.2104C95.5874 28.6876 95.6556 29.124 95.792 29.5195C95.942 29.9013 96.1397 30.2354 96.3851 30.5217C96.6442 30.8081 96.9442 31.0331 97.2851 31.1967C97.6261 31.3467 97.9942 31.4217 98.3897 31.4217C98.7851 31.4217 99.1533 31.3467 99.4942 31.1967C99.8351 31.0331 100.128 30.8081 100.374 30.5217C100.633 30.2354 100.831 29.8945 100.967 29.499C101.117 29.1035 101.192 28.6672 101.192 28.1899C101.192 27.7263 101.117 27.2967 100.967 26.9013C100.831 26.5058 100.633 26.1649 100.374 25.8786C100.128 25.5922 99.8351 25.374 99.4942 25.224C99.1533 25.0604 98.7851 24.9786 98.3897 24.9786C97.9942 24.9786 97.6261 25.0604 97.2851 25.224C96.9442 25.3876 96.6442 25.6126 96.3851 25.899C96.1397 26.1854 95.942 26.5263 95.792 26.9217C95.6556 27.3172 95.5874 27.7467 95.5874 28.2104Z" fill="#FA7086"/>
    <path d="M105.374 30.5831C105.565 30.7195 105.886 30.8695 106.336 31.0331C106.786 31.1967 107.304 31.2786 107.89 31.2786C108.463 31.2786 108.92 31.1831 109.261 30.9922C109.601 30.7876 109.861 30.4808 110.038 30.0717C110.215 29.6626 110.331 29.1581 110.386 28.5581C110.44 27.9445 110.467 27.2286 110.467 26.4104V19.0263H113.29V26.4104C113.29 27.5149 113.229 28.524 113.106 29.4376C112.997 30.3376 112.751 31.1081 112.37 31.749C112.001 32.3899 111.463 32.8876 110.754 33.2422C110.045 33.5967 109.09 33.774 107.89 33.774C106.663 33.774 105.613 33.474 104.74 32.874L105.374 30.5831ZM120.682 33.7536C119.81 33.7536 119.026 33.6036 118.33 33.3036C117.635 33.0036 117.041 32.6013 116.551 32.0967C116.073 31.5786 115.705 30.9854 115.446 30.3172C115.187 29.649 115.057 28.9467 115.057 28.2104C115.057 27.4604 115.187 26.7513 115.446 26.0831C115.705 25.4149 116.073 24.8285 116.551 24.324C117.041 23.8058 117.635 23.3967 118.33 23.0967C119.026 22.7967 119.81 22.6467 120.682 22.6467C121.555 22.6467 122.332 22.7967 123.014 23.0967C123.71 23.3967 124.296 23.8058 124.773 24.324C125.264 24.8285 125.639 25.4149 125.898 26.0831C126.157 26.7513 126.287 27.4604 126.287 28.2104C126.287 28.9467 126.157 29.649 125.898 30.3172C125.639 30.9854 125.271 31.5786 124.794 32.0967C124.316 32.6013 123.73 33.0036 123.035 33.3036C122.339 33.6036 121.555 33.7536 120.682 33.7536ZM117.88 28.2104C117.88 28.6876 117.948 29.124 118.085 29.5195C118.235 29.9013 118.432 30.2354 118.678 30.5217C118.937 30.8081 119.237 31.0331 119.578 31.1967C119.919 31.3467 120.287 31.4217 120.682 31.4217C121.078 31.4217 121.446 31.3467 121.787 31.1967C122.128 31.0331 122.421 30.8081 122.666 30.5217C122.926 30.2354 123.123 29.8945 123.26 29.499C123.41 29.1035 123.485 28.6672 123.485 28.1899C123.485 27.7263 123.41 27.2967 123.26 26.9013C123.123 26.5058 122.926 26.1649 122.666 25.8786C122.421 25.5922 122.128 25.374 121.787 25.224C121.446 25.0604 121.078 24.9786 120.682 24.9786C120.287 24.9786 119.919 25.0604 119.578 25.224C119.237 25.3876 118.937 25.6126 118.678 25.899C118.432 26.1854 118.235 26.5263 118.085 26.9217C117.948 27.3172 117.88 27.7467 117.88 28.2104ZM134.232 33.7536C133.414 33.7536 132.684 33.5695 132.044 33.2013C131.403 32.8331 130.898 32.3286 130.53 31.6876V33.549H128.137V18.6172H130.878V24.7126C131.259 24.0581 131.757 23.5536 132.371 23.199C132.998 22.8308 133.728 22.6467 134.559 22.6467C135.255 22.6467 135.889 22.7967 136.462 23.0967C137.034 23.3967 137.525 23.799 137.934 24.3036C138.357 24.8081 138.678 25.4013 138.896 26.0831C139.128 26.7649 139.244 27.4808 139.244 28.2308C139.244 29.0081 139.114 29.7308 138.855 30.399C138.609 31.0672 138.262 31.6536 137.812 32.1581C137.362 32.649 136.83 33.0376 136.216 33.324C135.603 33.6104 134.941 33.7536 134.232 33.7536ZM133.475 31.4217C133.912 31.4217 134.314 31.3399 134.682 31.1763C135.05 30.999 135.364 30.7672 135.623 30.4808C135.882 30.1945 136.08 29.8604 136.216 29.4786C136.366 29.0967 136.441 28.6876 136.441 28.2513C136.441 27.8149 136.373 27.399 136.237 27.0036C136.1 26.6081 135.903 26.2604 135.644 25.9604C135.398 25.6604 135.105 25.4217 134.764 25.2445C134.423 25.0672 134.048 24.9786 133.639 24.9786C133.025 24.9786 132.473 25.1831 131.982 25.5922C131.505 25.9876 131.137 26.4786 130.878 27.0649V29.6217C130.973 29.8945 131.109 30.1399 131.287 30.3581C131.478 30.5763 131.689 30.7672 131.921 30.9308C132.153 31.0808 132.405 31.2036 132.678 31.299C132.95 31.3808 133.216 31.4217 133.475 31.4217ZM145.151 33.7536C144.251 33.7536 143.371 33.6104 142.512 33.324C141.653 33.0376 140.917 32.6286 140.303 32.0967L141.326 30.3786C141.98 30.8422 142.614 31.1967 143.228 31.4422C143.855 31.674 144.476 31.7899 145.089 31.7899C145.635 31.7899 146.064 31.6876 146.378 31.4831C146.692 31.2786 146.849 30.9854 146.849 30.6036C146.849 30.2217 146.664 29.9422 146.296 29.7649C145.928 29.5876 145.328 29.3831 144.496 29.1513C143.801 28.9604 143.208 28.7763 142.717 28.599C142.226 28.4217 141.83 28.224 141.53 28.0058C141.23 27.774 141.012 27.5149 140.876 27.2286C140.739 26.9286 140.671 26.574 140.671 26.1649C140.671 25.6195 140.774 25.1286 140.978 24.6922C141.196 24.2558 141.496 23.8876 141.878 23.5876C142.26 23.274 142.703 23.0354 143.208 22.8717C143.726 22.7081 144.285 22.6263 144.885 22.6263C145.689 22.6263 146.439 22.7422 147.135 22.974C147.844 23.2058 148.492 23.5808 149.078 24.099L147.974 25.7558C147.428 25.3467 146.896 25.0467 146.378 24.8558C145.874 24.6649 145.369 24.5695 144.864 24.5695C144.401 24.5695 144.012 24.6649 143.699 24.8558C143.385 25.0467 143.228 25.3536 143.228 25.7763C143.228 25.9672 143.262 26.124 143.33 26.2467C143.412 26.3695 143.535 26.4786 143.699 26.574C143.862 26.6695 144.074 26.7649 144.333 26.8604C144.605 26.9422 144.939 27.0308 145.335 27.1263C146.071 27.3172 146.699 27.5081 147.217 27.699C147.749 27.8899 148.178 28.1081 148.505 28.3536C148.846 28.599 149.092 28.8854 149.242 29.2126C149.405 29.5263 149.487 29.9081 149.487 30.3581C149.487 31.4081 149.099 32.2399 148.321 32.8536C147.544 33.4536 146.487 33.7536 145.151 33.7536Z" fill="#6D4CD8"/>
  </g>
</svg>