<svg xmlns="http://www.w3.org/2000/svg" width="213" height="61" viewBox="0 0 213 61" fill="none">
  <g style="mix-blend-mode:lighten" clip-path="url(#clip0_1191_1264)">
    <path d="M2.55328 39.4079L16.6448 47.528V31.2008L2.55328 23.082V39.4079Z" fill="#0586AA"/>
    <path d="M35.8684 40.7176V57.0274L65.2864 40.0997L51.1237 31.9395L35.8684 40.7176Z" fill="#938A93"/>
    <path d="M66.4475 37.8312V23.1211L53.673 30.4708L66.4475 37.8312Z" fill="#938A93"/>
    <path d="M79.5836 24.6344H84.9603V39.2896H88.7243V24.6344H94.0769V21.4805H79.5836V24.6344Z" fill="white"/>
    <path d="M110.574 37.827C110.509 37.5367 110.477 36.9857 110.477 36.1711V34.9754C110.477 33.7275 110.305 32.7992 109.961 32.1906C109.617 31.5821 109.032 31.1139 108.207 30.7836C109.195 30.4452 109.903 29.8674 110.332 29.0501C110.761 28.2329 110.976 27.401 110.976 26.5557C110.976 25.8548 110.863 25.2302 110.636 24.6831C110.409 24.1361 110.102 23.6358 109.712 23.1851C109.243 22.638 108.671 22.2221 107.995 21.9412C107.319 21.659 106.354 21.5065 105.1 21.4824H96.3238V39.2916H99.9777V32.3083H103.839C104.939 32.3083 105.69 32.4983 106.091 32.8768C106.491 33.2553 106.7 34.0123 106.716 35.1479L106.74 36.8038C106.748 37.3281 106.8 37.839 106.897 38.3379C106.946 38.58 107.026 38.8983 107.14 39.2929H111.255V38.8462C110.899 38.6281 110.672 38.2898 110.575 37.831L110.574 37.827ZM106.107 29.0675C105.686 29.2615 105.055 29.3578 104.213 29.3578H99.9763V24.5734H104.322C105.131 24.5734 105.739 24.6778 106.143 24.8878C106.864 25.2583 107.224 25.9832 107.224 27.0626C107.224 28.0617 106.851 28.7305 106.107 29.0689V29.0675Z" fill="white"/>
    <path d="M124.751 32.4268C124.751 33.6519 124.606 34.5454 124.315 35.1085C123.862 36.1076 122.878 36.6065 121.365 36.6065C119.852 36.6065 118.856 36.1076 118.403 35.1085C118.111 34.5454 117.966 33.6506 117.966 32.4268V21.4805H114.167V32.4268C114.167 34.3194 114.463 35.7933 115.053 36.8486C116.161 38.7813 118.266 39.7484 121.365 39.7484C124.464 39.7484 126.564 38.7813 127.665 36.8486C128.255 35.7933 128.55 34.3194 128.55 32.4268V21.4805H124.751V32.4268Z" fill="white"/>
    <path d="M144.307 30.4467C143.619 29.9076 142.599 29.4756 141.248 29.1533L138.166 28.4163C136.976 28.1341 136.199 27.8893 135.835 27.6793C135.268 27.365 134.986 26.8902 134.986 26.2535C134.986 25.5607 135.274 25.0217 135.847 24.6351C136.423 24.2486 137.191 24.0546 138.153 24.0546C139.019 24.0546 139.743 24.2044 140.326 24.5014C141.2 24.9521 141.67 25.7132 141.735 26.7845H145.328C145.264 24.8919 144.565 23.4474 143.234 22.4536C141.903 21.4585 140.294 20.9609 138.409 20.9609C136.151 20.9609 134.439 21.4879 133.274 22.5432C132.109 23.5985 131.526 24.924 131.526 26.5184C131.526 28.2665 132.129 29.5505 133.334 30.3731C134.047 30.864 135.333 31.3201 137.195 31.7387L139.089 32.1614C140.197 32.4035 141.01 32.6803 141.529 32.9946C142.047 33.317 142.306 33.7717 142.306 34.3603C142.306 35.3674 141.785 36.0562 140.74 36.4267C140.189 36.6207 139.473 36.717 138.592 36.717C137.119 36.717 136.079 36.3505 135.472 35.6175C135.141 35.2149 134.917 34.6064 134.805 33.7931H131.235C131.235 35.6456 131.903 37.1022 133.239 38.1602C134.575 39.2195 136.408 39.7491 138.738 39.7491C141.068 39.7491 142.787 39.2115 144.037 38.1361C145.287 37.0607 145.913 35.7098 145.913 34.0821C145.913 32.4543 145.379 31.2826 144.311 30.4453L144.307 30.4467Z" fill="white"/>
    <path d="M160.828 22.8581C159.76 21.9392 158.327 21.4805 156.53 21.4805H148.738V39.2896H152.452V32.8855H156.251C158.233 32.8855 159.76 32.4508 160.828 31.5801C161.896 30.7094 162.43 29.2247 162.43 27.1221C162.43 25.1974 161.896 23.7757 160.828 22.8568V22.8581ZM157.999 29.1766C157.506 29.6033 156.818 29.8173 155.935 29.8173H152.451V24.5742H155.935C156.817 24.5742 157.503 24.7721 157.993 25.1667C158.482 25.5613 158.726 26.222 158.726 27.1476C158.726 28.0731 158.483 28.7499 157.998 29.1779L157.999 29.1766Z" fill="white"/>
    <path d="M168.5 21.4805L162.115 39.2896H166.025L167.262 35.6288H173.854L175.007 39.2896H179.061L172.725 21.4805H168.5ZM168.269 32.5592L170.575 25.5519L172.808 32.5592H168.269Z" fill="white"/>
    <path d="M188.748 24.3205C190.084 24.3205 191.09 24.7071 191.77 25.4802C192.15 25.9149 192.462 26.5596 192.705 27.4129H196.444C196.387 26.3014 195.975 25.1939 195.206 24.0905C193.814 22.1257 191.613 21.1426 188.603 21.1426C186.353 21.1426 184.5 21.8755 183.043 23.3415C181.367 25.0254 180.53 27.4209 180.53 30.5307C180.53 33.4063 181.267 35.6694 182.739 37.3213C184.212 38.9651 186.236 39.7863 188.81 39.7863C190.89 39.7863 192.596 39.1778 193.932 37.9619C195.26 36.7461 196.085 35.1665 196.409 33.2258H192.707C192.455 34.1447 192.14 34.8321 191.759 35.2922C191.071 36.1456 190.071 36.5736 188.761 36.5736C187.451 36.5736 186.428 36.076 185.599 35.0809C184.77 34.0858 184.355 32.5904 184.355 30.5922C184.355 28.5939 184.747 27.0504 185.532 25.959C186.317 24.8676 187.389 24.3219 188.749 24.3219L188.748 24.3205Z" fill="white"/>
    <path d="M202.998 36.0889V31.5092H211.69V28.4155H202.998V24.6344H212.466V21.4805H199.344V39.2896H212.903V36.0889H202.998Z" fill="white"/>
    <path d="M68.3625 19.745L51.9112 10.2659C51.5161 10.0386 51.0283 10.0386 50.6332 10.2659L35.8671 18.7619V1.77132C35.8671 1.31656 35.6239 0.897913 35.2288 0.670534C34.8337 0.443155 34.3472 0.443155 33.9521 0.670534L0.638324 19.8399C0.243235 20.0673 0 20.486 0 20.9394V40.1409C0 40.5943 0.243235 41.0129 0.63698 41.2403L17.1461 50.7528C17.3436 50.8665 17.5653 50.924 17.7857 50.924C18.0061 50.924 18.2265 50.8665 18.424 50.7528L33.3138 42.1859V59.2287C33.3138 59.6834 33.557 60.1021 33.9521 60.3295C34.1497 60.4432 34.3701 60.4993 34.5904 60.4993C34.8108 60.4993 35.0312 60.4418 35.2288 60.3281L68.3611 41.2644C68.7562 41.037 68.9995 40.6184 68.9995 40.1649V20.8444C68.9995 20.391 68.7562 19.9723 68.3625 19.745ZM16.6448 47.528L2.5533 39.4092V23.0821L16.6448 31.2009V47.528ZM17.998 29.0448L3.87967 20.91L33.3151 3.97422V20.2318L17.998 29.0448ZM19.1981 47.3742V31.2891L51.2715 12.834L65.2394 20.8819L19.1981 47.3729V47.3742ZM35.8684 57.0285V40.7187L51.1237 31.9405L65.2878 40.1007L35.8684 57.0285ZM66.4475 37.8336L53.6743 30.4732L66.4475 23.1236V37.8323V37.8336Z" fill="white"/>
  </g>
  <defs>
    <clipPath id="clip0_1191_1264">
      <rect width="212.903" height="60" fill="white" transform="translate(0 0.5)"/>
    </clipPath>
  </defs>
</svg>