<svg xmlns="http://www.w3.org/2000/svg" width="95" height="41" viewBox="0 0 95 41" fill="none">
  <g clip-path="url(#clip0_1191_1275)">
    <path d="M1.04431 1.23281H5.77765L11.7776 19.2328L17.4443 1.23281H21.8443C21.8443 1.23281 17.2443 13.2328 13.8443 23.4995H9.17764C5.71098 13.2328 1.04431 1.23281 1.04431 1.23281ZM26.5776 1.16615H30.911C30.9776 11.4995 30.911 13.2995 30.9776 23.4328H26.5776V1.16615ZM35.2443 1.23281H52.911V4.69948L46.111 4.56615C46.111 4.56615 45.8443 13.2328 46.1776 23.4328H42.0443C42.3776 13.2328 42.111 4.56615 42.111 4.56615L35.2443 4.69948V1.23281ZM73.6443 23.4328H68.911L62.911 5.43281L57.2443 23.4328H52.8443C52.8443 23.4328 57.4443 11.4328 60.8443 1.16615H65.511C68.9776 11.4328 73.6443 23.4328 73.6443 23.4328ZM89.711 2.69948L88.5777 6.03281C88.5777 6.03281 86.111 3.23281 83.9776 3.23281C82.0443 3.23281 80.3776 4.23281 80.3776 6.23281C80.3776 10.4995 90.911 9.56614 90.911 17.6995C90.911 20.6995 87.711 23.8995 83.511 23.8995C79.511 23.8995 75.911 21.2995 75.911 21.2995L77.0443 17.7661C77.0443 17.7661 80.111 21.0328 83.0443 21.0328C85.3776 21.0328 86.9776 19.5661 86.9776 17.8995C86.9776 13.0328 76.311 13.7661 76.311 6.36615C76.311 3.36615 78.911 0.632812 83.4443 0.632812C86.711 0.632812 89.711 2.69948 89.711 2.69948ZM94.3776 2.76615C94.3776 3.69948 93.5776 4.49948 92.6443 4.49948C91.711 4.49948 90.911 3.69948 90.911 2.76615C90.911 1.83281 91.711 1.03281 92.6443 1.03281C93.5776 0.966146 94.3776 1.76615 94.3776 2.76615ZM91.2443 2.76615C91.1777 3.56615 91.7776 4.16615 92.5777 4.23281C93.3776 4.29948 93.9776 3.69948 94.0443 2.89948V2.76615C94.0443 1.96615 93.4443 1.36615 92.6443 1.36615C91.8443 1.36615 91.2443 1.96615 91.2443 2.76615ZM92.711 1.76615C93.111 1.76615 93.3776 1.89948 93.3776 2.29948C93.3776 2.56615 93.1777 2.83281 92.911 2.83281L93.4443 3.69948H93.111L92.5777 2.83281H92.2443V3.69948H91.911V1.69948L92.711 1.76615ZM92.311 2.63281H92.711C93.111 2.63281 93.1776 2.49948 93.1776 2.29948C93.1776 2.16615 93.111 2.03281 92.711 2.03281H92.311V2.63281ZM10.3776 28.3661V33.2995H16.4443V28.3661H18.111V40.0995H16.4443V34.5661H10.3776V40.0995H8.71098V28.3661H10.3776ZM21.7776 36.1661C21.8443 38.2328 23.2443 39.0995 24.8443 39.0995C25.711 39.0995 26.5776 38.9661 27.311 38.6995L27.5776 39.7661C26.6443 40.1661 25.5776 40.2995 24.5776 40.2995C21.8443 40.2995 20.111 38.5661 20.111 36.0328C20.111 33.4995 21.711 31.4328 24.3776 31.4328C27.311 31.4328 28.111 33.8328 28.111 35.4328C28.111 35.6995 28.111 35.8995 28.0443 36.1661H21.7776ZM26.5776 35.0328C26.5776 34.0995 26.1776 32.5661 24.311 32.5661C22.6443 32.5661 21.911 33.9661 21.7776 35.0328H26.5776ZM36.5776 38.0995C36.5776 38.7661 36.6443 39.4328 36.711 40.0995H35.2443L35.111 39.0328H35.0443C34.5776 39.6995 33.5776 40.2995 32.311 40.2995C30.511 40.2995 29.5776 39.0995 29.5776 37.8995C29.5776 35.8328 31.511 34.7661 34.9776 34.7661V34.5661C34.9776 33.8995 34.7776 32.5661 32.911 32.6328C32.111 32.6328 31.2443 32.8328 30.511 33.2328L30.111 32.2328C31.0443 31.7661 32.0443 31.4995 33.111 31.4995C35.911 31.4995 36.5776 33.2328 36.5776 34.9661V38.0995ZM34.9776 35.7661C33.1776 35.6995 31.1776 36.0328 31.1776 37.6995C31.1776 38.6995 31.911 39.1661 32.711 39.1661C33.911 39.1661 34.6443 38.4995 34.911 37.7661C34.9776 37.6328 34.9776 37.4328 34.9776 37.2995V35.7661ZM39.2443 27.6995H40.8443V40.0995H39.1776V27.6995H39.2443ZM45.5776 29.6328V31.6328H47.911V32.8328H45.5776V37.3661C45.5776 38.4328 45.911 39.0328 46.7776 39.0328C47.111 39.0328 47.4443 39.0328 47.711 38.8995L47.7776 40.0995C47.311 40.2328 46.8443 40.2995 46.311 40.2995C45.6443 40.2995 45.0443 40.0995 44.511 39.6328C44.0443 39.1661 43.911 38.4328 43.911 37.4328V32.8328H42.511V31.6328H43.911V30.0995L45.5776 29.6328ZM49.7776 27.6995H51.4443V32.9661H51.511C51.7776 32.4995 52.1776 32.0995 52.711 31.8995C53.2443 31.6328 53.7776 31.4328 54.3776 31.4328C55.5776 31.4328 57.511 32.0995 57.511 35.0328V40.0328H55.8443V35.1661C55.8443 33.7661 55.311 32.6328 53.7776 32.6328C52.7776 32.6328 51.911 33.2328 51.5776 34.1661C51.511 34.4328 51.4443 34.6328 51.4443 34.8995V39.9661H49.7776V27.6995ZM66.511 39.8328C65.711 40.1661 64.7776 40.2995 63.911 40.2995C61.1776 40.2995 59.4443 38.5661 59.4443 35.9661C59.4443 33.3661 61.3776 31.4328 64.311 31.4328C65.111 31.4328 65.8443 31.5661 66.5776 31.8995L66.1776 33.0995C65.5776 32.8328 64.911 32.6995 64.2443 32.6995C62.1776 32.6995 61.0443 34.1661 61.0443 35.8995C61.0443 37.8328 62.3776 39.0328 64.1776 39.0328C64.8443 39.0328 65.5776 38.8995 66.1776 38.6328L66.511 39.8328ZM74.8443 38.0995C74.8443 38.7661 74.911 39.4328 74.9776 40.0995H73.511L73.3776 39.0328H73.311C72.8443 39.6995 71.8443 40.2995 70.5776 40.2995C68.7776 40.2995 67.8443 39.0995 67.8443 37.8995C67.8443 35.8328 69.7776 34.7661 73.2443 34.7661V34.5661C73.2443 33.8995 73.0443 32.5661 71.1776 32.6328C70.3776 32.6328 69.511 32.8328 68.7776 33.2328L68.3776 32.2328C69.311 31.7661 70.311 31.4995 71.3776 31.4995C74.1777 31.4995 74.8443 33.2328 74.8443 34.9661V38.0995ZM73.2443 35.7661C71.4443 35.6995 69.4443 36.0328 69.4443 37.6995C69.4443 38.6995 70.1776 39.1661 70.9776 39.1661C72.1776 39.1661 72.911 38.4995 73.1776 37.7661C73.2443 37.6328 73.2443 37.4328 73.2443 37.2995V35.7661ZM77.511 34.2995C77.511 33.2995 77.511 32.4328 77.4443 31.6328H78.911L78.9776 33.2995H79.0443C79.3776 32.2328 80.4443 31.4995 81.5776 31.4328C81.711 31.4328 81.911 31.4328 82.0443 31.4995V32.8995C81.8443 32.8995 81.6443 32.8328 81.4443 32.8328C80.311 32.8328 79.4443 33.6328 79.2443 34.7661C79.1776 35.0328 79.1776 35.2328 79.1776 35.4995V40.0328H77.511V34.2995ZM84.3776 36.1661C84.4443 38.2328 85.8443 39.0995 87.4443 39.0995C88.311 39.0995 89.1777 38.9661 89.911 38.6995L90.1776 39.7661C89.2443 40.1661 88.1776 40.2995 87.1776 40.2995C84.4443 40.2995 82.711 38.5661 82.711 36.0328C82.711 33.4995 84.311 31.4328 86.9776 31.4328C89.911 31.4328 90.711 33.8328 90.711 35.4328C90.711 35.6995 90.711 35.8995 90.6443 36.1661H84.3776ZM89.1776 35.0328C89.1776 34.0995 88.7776 32.5661 86.911 32.5661C85.2443 32.5661 84.511 33.9661 84.3776 35.0328H89.1776Z" fill="#502F80"/>
  </g>
  <defs>
    <clipPath id="clip0_1191_1275">
      <rect width="94" height="40" fill="white" transform="translate(0.84436 0.5)"/>
    </clipPath>
  </defs>
</svg>