<svg xmlns="http://www.w3.org/2000/svg" width="21" height="21" viewBox="0 0 21 21" fill="none">
<path fill-rule="evenodd" clip-rule="evenodd" d="M10.6055 0.110107C7.88965 0.110107 7.5491 0.121619 6.48249 0.170285C5.4181 0.218832 4.69117 0.387894 4.0551 0.635115C3.3975 0.890633 2.83983 1.23257 2.28386 1.7885C1.72792 2.34446 1.38599 2.90214 1.13048 3.55973C0.883255 4.19581 0.714194 4.92275 0.665647 5.98713C0.61698 7.05374 0.605469 7.39428 0.605469 10.1102C0.605469 12.826 0.61698 13.1665 0.665647 14.2332C0.714194 15.2975 0.883255 16.0245 1.13048 16.6605C1.38599 17.3181 1.72792 17.8758 2.28386 18.4317C2.83983 18.9877 3.3975 19.3296 4.0551 19.5852C4.69117 19.8324 5.4181 20.0014 6.48249 20.05C7.5491 20.0986 7.88965 20.1101 10.6055 20.1101C13.3213 20.1101 13.6619 20.0986 14.7284 20.05C15.7929 20.0014 16.5198 19.8324 17.1559 19.5852C17.8134 19.3296 18.3711 18.9877 18.9271 18.4317C19.483 17.8758 19.825 17.3181 20.0806 16.6605C20.3277 16.0245 20.4968 15.2975 20.5453 14.2332C20.594 13.1665 20.6055 12.826 20.6055 10.1102C20.6055 7.39428 20.594 7.05374 20.5453 5.98713C20.4968 4.92275 20.3277 4.19581 20.0806 3.55973C19.825 2.90214 19.483 2.34446 18.9271 1.7885C18.3711 1.23257 17.8134 0.890633 17.1559 0.635115C16.5198 0.387894 15.7929 0.218832 14.7284 0.170285C13.6619 0.121619 13.3213 0.110107 10.6055 0.110107ZM7.27215 10.1102C7.27215 11.9511 8.76452 13.4435 10.6055 13.4435C12.4465 13.4435 13.9389 11.9511 13.9389 10.1102C13.9389 8.26916 12.4465 6.77679 10.6055 6.77679C8.76452 6.77679 7.27215 8.26916 7.27215 10.1102ZM5.47035 10.1102C5.47035 7.27404 7.76941 4.97498 10.6055 4.97498C13.4415 4.97498 15.7406 7.27404 15.7406 10.1102C15.7406 12.9462 13.4415 15.2452 10.6055 15.2452C7.76941 15.2452 5.47035 12.9462 5.47035 10.1102ZM15.9435 5.97209C16.6063 5.97209 17.1435 5.43485 17.1435 4.7721C17.1435 4.10935 16.6063 3.57208 15.9435 3.57208C15.2808 3.57208 14.7435 4.10935 14.7435 4.7721C14.7435 5.43485 15.2808 5.97209 15.9435 5.97209Z" fill="#242424"/>
</svg>