<svg xmlns="http://www.w3.org/2000/svg" width="23" height="21" viewBox="0 0 23 21" fill="none">
  <path d="M5.62391 6.52441H1.37891V20.1101H5.62391V6.52441Z" fill="#242424"/>
  <path d="M3.41105 0.110107C1.84576 0.110107 0.816406 1.12244 0.816406 2.46655C0.816406 3.78514 1.81173 4.82299 3.3515 4.82299H3.38553C4.98485 4.82299 5.98017 3.77663 5.97166 2.46655C5.93763 1.12244 4.97634 0.110107 3.41105 0.110107Z" fill="#242424"/>
  <path d="M17.2199 6.39673C14.7869 6.39673 13.2641 7.72382 12.9834 8.6596V6.52433H8.21094C8.27049 7.65577 8.21094 20.11 8.21094 20.11H12.9834V12.7685C12.9834 12.3516 12.9664 11.9433 13.0855 11.6541C13.4087 10.8374 14.1148 9.98669 15.3824 9.98669C17.0412 9.98669 17.7898 11.2457 17.7898 13.0832V20.11H22.6048V12.5558C22.6048 8.35334 20.2399 6.39673 17.2199 6.39673Z" fill="#242424"/>
</svg>