<svg xmlns="http://www.w3.org/2000/svg" width="26" height="21" viewBox="0 0 26 21" fill="none">
<path d="M8.3447 20.1101C5.49464 20.1101 2.84033 19.2746 0.605469 17.8372C1.92723 17.9978 3.26769 17.8959 4.55004 17.5376C5.83238 17.1792 7.03143 16.5714 8.07848 15.7489C7.02463 15.7296 6.00326 15.3808 5.1577 14.7515C4.31215 14.1222 3.68484 13.244 3.36381 12.24C3.67253 12.3004 3.98907 12.3317 4.31233 12.3317C4.77318 12.3317 5.22059 12.2691 5.64676 12.1572C4.50432 11.9259 3.47695 11.3068 2.73863 10.4048C2.00032 9.50275 1.59644 8.3733 1.59538 7.20766V7.14167C2.29533 7.53161 3.0786 7.74795 3.87946 7.77253C3.18744 7.31146 2.62022 6.68637 2.22834 5.95296C1.83645 5.21954 1.63208 4.40057 1.63341 3.56903C1.63341 2.64735 1.88509 1.77711 2.31796 1.03216C3.5856 2.59183 5.16716 3.8674 6.9599 4.77601C8.75264 5.68461 10.7165 6.20594 12.7238 6.30611C12.4723 5.2237 12.5847 4.08856 13.0435 3.07646C13.5023 2.06435 14.282 1.23175 15.2619 0.707557C16.2417 0.183367 17.367 -0.00316519 18.4636 0.176843C19.5602 0.356851 20.5668 0.893357 21.3277 1.70329C22.4578 1.4796 23.5417 1.06583 24.5334 0.479599C24.1561 1.64848 23.3682 2.6411 22.3154 3.27373C23.3158 3.15429 24.2929 2.88663 25.2146 2.47956C24.535 3.49207 23.6823 4.37694 22.6957 5.09361C22.7046 5.30949 22.7113 5.5276 22.7113 5.74572C22.7102 12.4145 17.6309 20.1112 8.3447 20.1101Z" fill="#242424"/>
</svg>